<svg width="363" height="343" viewBox="0 0 363 343" fill="none" xmlns="http://www.w3.org/2000/svg">
<rect width="363" height="343" fill="#EDCA4A"/>
<g clip-path="url(#clip0_4236_648)">
<path d="M91.4699 190.337C95.6063 190.337 99.2194 189.181 102.361 186.764C105.503 184.399 107.754 181.404 109.063 177.831L120.897 182.035C119.85 185.082 118.332 187.92 116.394 190.495C114.457 193.069 112.205 195.276 109.64 197.115C107.074 199.007 104.194 200.425 101.052 201.476C97.9103 202.527 94.6639 203 91.3127 203C87.0191 203 82.9346 202.159 79.1122 200.53C75.2898 198.902 71.9386 196.642 69.1111 193.805C66.2311 190.915 64.0319 187.605 62.4087 183.769C60.7854 179.933 60 175.835 60 171.526C60 167.218 60.8378 163.119 62.461 159.284C64.0843 155.448 66.3358 152.138 69.1634 149.3C71.991 146.463 75.3422 144.204 79.1646 142.522C82.987 140.841 87.0712 140 91.3651 140C94.7686 140 97.9627 140.525 101 141.524C104.037 142.522 106.812 143.941 109.378 145.727C111.944 147.514 114.195 149.668 116.08 152.138C118.017 154.607 119.536 157.339 120.636 160.334L108.906 164.643C107.597 161.123 105.346 158.233 102.204 156.026C99.0622 153.819 95.5017 152.716 91.522 152.716C88.9563 152.716 86.4954 153.241 84.2438 154.239C81.9398 155.238 79.9501 156.604 78.2745 158.285C76.5989 159.967 75.2374 161.963 74.2949 164.223C73.3524 166.482 72.8288 168.899 72.8288 171.526C72.8288 174.101 73.3 176.57 74.2949 178.83C75.2374 181.089 76.5989 183.086 78.2745 184.767C79.9501 186.449 81.9398 187.815 84.1914 188.813C86.443 189.811 88.8517 190.337 91.4699 190.337Z" fill="#231F20"/>
<path d="M125.923 153.03H138.647V177.989C138.647 179.67 138.962 181.246 139.59 182.717C140.218 184.241 141.108 185.502 142.156 186.606C143.255 187.709 144.564 188.55 146.03 189.18C147.549 189.811 149.12 190.126 150.743 190.126C152.419 190.126 153.99 189.811 155.456 189.18C156.974 188.55 158.231 187.657 159.331 186.606C160.43 185.502 161.268 184.189 161.896 182.717C162.525 181.194 162.839 179.617 162.839 177.989V153.03H175.668V177.989C175.668 181.456 175.039 184.714 173.73 187.709C172.421 190.757 170.641 193.384 168.389 195.643C166.138 197.903 163.467 199.689 160.483 201.003C157.446 202.316 154.199 202.947 150.795 202.947C147.34 202.947 144.093 202.316 141.108 201.003C138.072 199.689 135.453 197.903 133.202 195.643C130.95 193.384 129.17 190.757 127.861 187.709C126.552 184.662 125.923 181.456 125.923 177.989V153.03Z" fill="#231F20"/>
<path d="M193.419 156.236C195.199 155.238 197.137 154.45 199.179 153.872C201.221 153.294 203.368 153.031 205.567 153.031C209.023 153.031 212.269 153.662 215.254 154.975C218.291 156.289 220.909 158.075 223.161 160.335C225.412 162.594 227.193 165.274 228.502 168.269C229.811 171.316 230.439 174.574 230.439 177.989C230.439 181.457 229.811 184.715 228.502 187.71C227.193 190.757 225.412 193.385 223.161 195.644C220.909 197.903 218.239 199.69 215.254 201.004C212.217 202.317 208.971 202.947 205.567 202.947C202.111 202.947 198.865 202.317 195.88 201.004C192.843 199.69 190.225 197.903 187.973 195.644C185.722 193.385 183.941 190.757 182.632 187.71C181.323 184.662 180.695 181.457 180.695 177.989V140.053H193.419V156.236ZM205.567 190.232C207.243 190.232 208.814 189.917 210.28 189.286C211.798 188.656 213.055 187.762 214.155 186.712C215.254 185.608 216.092 184.294 216.72 182.823C217.349 181.3 217.663 179.723 217.663 178.094C217.663 176.413 217.349 174.837 216.72 173.365C216.092 171.842 215.202 170.581 214.155 169.477C213.055 168.374 211.746 167.533 210.28 166.903C208.761 166.272 207.19 165.957 205.567 165.957C203.891 165.957 202.321 166.272 200.907 166.903C199.441 167.533 198.184 168.374 197.084 169.425C195.985 170.476 195.147 171.684 194.519 173.103C193.89 174.521 193.524 176.045 193.471 177.674V178.199C193.471 179.881 193.785 181.457 194.414 182.928C195.042 184.452 195.932 185.713 196.98 186.817C198.079 187.92 199.388 188.761 200.854 189.391C202.321 189.917 203.891 190.232 205.567 190.232Z" fill="#231F20"/>
<path d="M248.19 156.236C249.97 155.238 251.907 154.45 253.949 153.872C255.992 153.294 258.138 153.031 260.338 153.031C263.794 153.031 267.04 153.662 270.025 154.975C273.062 156.289 275.68 158.075 277.931 160.335C280.183 162.594 281.963 165.274 283.272 168.269C284.581 171.316 285.21 174.574 285.21 177.989C285.21 181.457 284.581 184.715 283.272 187.71C281.963 190.757 280.183 193.385 277.931 195.644C275.68 197.903 273.009 199.69 270.025 201.004C266.988 202.317 263.741 202.947 260.338 202.947C256.882 202.947 253.635 202.317 250.651 201.004C247.614 199.69 244.995 197.903 242.744 195.644C240.492 193.385 238.712 190.757 237.403 187.71C236.094 184.662 235.466 181.457 235.466 177.989V140.053H248.19V156.236ZM260.338 190.232C262.013 190.232 263.584 189.917 265.05 189.286C266.569 188.656 267.825 187.762 268.925 186.712C270.025 185.608 270.863 184.294 271.491 182.823C272.119 181.3 272.433 179.723 272.433 178.094C272.433 176.413 272.119 174.837 271.491 173.365C270.863 171.842 269.972 170.581 268.925 169.477C267.825 168.374 266.517 167.533 265.05 166.903C263.532 166.272 261.961 165.957 260.338 165.957C258.662 165.957 257.091 166.272 255.677 166.903C254.211 167.533 252.955 168.374 251.855 169.425C250.755 170.476 249.918 171.684 249.289 173.103C248.661 174.521 248.294 176.045 248.242 177.674V178.199C248.242 179.881 248.556 181.457 249.184 182.928C249.813 184.452 250.703 185.713 251.75 186.817C252.85 187.92 254.159 188.761 255.625 189.391C257.091 189.917 258.662 190.232 260.338 190.232Z" fill="#231F20"/>
<path d="M290.236 153.031V140.053H302.962V153.031H290.236ZM302.962 156.236V203H290.236V156.236H302.962Z" fill="#231F20"/>
</g>
<defs>
<clipPath id="clip0_4236_648">
<rect width="243" height="63" fill="white" transform="translate(60 140)"/>
</clipPath>
</defs>
</svg>
